<svg xmlns="http://www.w3.org/2000/svg" viewBox="0 0 64 64">
  <!-- ToneUp 로고 마크: 말풍선 + 마이크 (벡터라 어떤 크기에서도 선명) -->
  <defs>
    <linearGradient id="tu-g" x1="0" y1="0" x2="1" y2="1">
      <stop offset="0" stop-color="#60a5fa"/>
      <stop offset="1" stop-color="#4f6df5"/>
    </linearGradient>
  </defs>
  <!-- 말풍선 (오른쪽 아래 꼬리) -->
  <path fill="url(#tu-g)"
        d="M20 5h24c8.28 0 15 6.72 15 15v16c0 8.28-6.72 15-15 15h-3.2l3.7 9.6-13-9.6H20c-8.28 0-15-6.72-15-15V20c0-8.28 6.72-15 15-15z"/>
  <!-- 마이크 -->
  <g fill="#fff">
    <rect x="27" y="14" width="10" height="16" rx="5"/>
    <rect x="30" y="36.5" width="4" height="7" rx="2"/>
    <rect x="25" y="43" width="14" height="4" rx="2"/>
  </g>
  <path d="M21 26a11 11 0 0 0 22 0" fill="none" stroke="#fff" stroke-width="4" stroke-linecap="round"/>
</svg>
